<svg data-v-0dd9719b="" version="1.0" xmlns="http://www.w3.org/2000/svg" xmlns:xlink="http://www.w3.org/1999/xlink" width="100%" height="100%" viewBox="0 0 340.000000 250.000000" preserveAspectRatio="xMidYMid meet" color-interpolation-filters="sRGB" style="margin: auto;"> <rect data-v-0dd9719b="" x="0" y="0" width="100%" height="100%" fill="#fff" fill-opacity="1" class="background"></rect> <rect data-v-0dd9719b="" x="0" y="0" width="100%" height="100%" fill="url(#watermark)" fill-opacity="1" class="watermarklayer"></rect> <g data-v-0dd9719b="" fill="#333" class="icon-text-wrapper icon-svg-group iconsvg" transform="translate(48.81999969482422,99.01922607421875)"><g class="iconsvg-imagesvg" transform="translate(0,0)"><g><rect fill="#333" fill-opacity="0" stroke-width="2" x="0" y="0" width="60" height="51.96154845414393" class="image-rect"></rect> <svg x="0" y="0" width="60" height="51.96154845414393" filtersec="colorsb3386206493" class="image-svg-svg primary" style="overflow: visible;"><svg xmlns="http://www.w3.org/2000/svg" viewBox="0 0 115.4699935913086 100"><g fill-rule="evenodd"><path d="M88.47 31.82a5.89 5.89 0 0 0 .45-2.27 6 6 0 1 0-6.37 5.94L98.83 63.7l-21 36.3h8.77l20.62-35.71zM28 43.46a6 6 0 0 0 5.31-8.66L49.05 7.56H91L86.6 0H45.37L27.12 31.61A6 6 0 0 0 28 43.46zM62.76 76.19a6 6 0 0 0-4.88 2.55H25.32l-21-36.3L0 50l20.62 35.71H58a6 6 0 1 0 4.77-9.52z" fill="#00a2e9"></path><path d="M94.85 14.29h-37a6 6 0 1 0 0 7h32.3l21 36.3 4.32-7.59zM87.18 56.23a6 6 0 0 0-5.08 9.06L66.42 92.44H24.5l4.37 7.56H70.1l18.49-32a6 6 0 0 0-1.41-11.75zM25.66 69.75a6 6 0 1 0 6.89-5.88L16.64 36.3 37.6 0h-8.73L8.25 35.71 26.32 67a6 6 0 0 0-.66 2.75z" fill="#096594"></path></g></svg></svg> <!----></g></g> <g transform="translate(67,1.909524917602539)"><g data-gra="path-name" fill-rule="" class="tp-name iconsvg-namesvg" transform="translate(0,0)"><g transform="scale(1)"><g><path d="M21.52-28.97L21.52-28.97Q25.03-28.97 26.16-28.55L26.16-28.55Q26.16-28.41 25.73-27.98L25.73-27.98Q25.17-27.28 25.17-27L25.17-27Q25.17-24.33 25.17-23.77L25.17-23.77 28.27-23.77Q31.08-23.77 33.47-24.05L33.47-24.05 33.47-20.95Q32.63-21.23 28.41-21.23L28.41-21.23 25.17-21.23Q25.03-17.86 24.61-12.52L24.61-12.52Q24.75-12.94 24.61-11.81L24.61-11.81 28.41-11.81Q32.77-11.81 33.89-12.09L33.89-12.09 33.89-8.86Q32.48-9.28 28.83-9.28L28.83-9.28 25.73-9.28Q27.28-2.53 35.16 0L35.16 0Q33.19 0.84 32.06 2.95L32.06 2.95Q24.89-1.27 24.19-9.14L24.19-9.14Q22.64-0.7 12.38 3.38L12.38 3.38Q11.53 1.97 9.14 0.56L9.14 0.56Q18.98-1.27 21.09-9.42L21.09-9.42 19.69-9.42Q15.89-9.42 14.48-9.14L14.48-9.14 14.48-12.09Q15.89-11.81 19.55-11.81L19.55-11.81 21.52-11.81Q22.08-16.45 22.08-21.23L22.08-21.23 20.39-21.23Q16.59-21.23 14.63-20.95L14.63-20.95 14.63-24.05Q14.77-24.05 15.33-24.05L15.33-24.05Q18.7-23.63 20.53-23.77L20.53-23.77 22.08-23.77Q22.08-27.7 21.52-28.97ZM2.81-27.14L2.81-27.14Q3.8-26.86 7.31-26.86L7.31-26.86Q8.3-26.86 8.72-26.86L8.72-26.86Q9.14-26.86 9.98-26.86L9.98-26.86Q13.64-26.72 14.77-27.14L14.77-27.14Q14.48-26.58 14.34-26.02L14.34-26.02Q12.94-22.64 10.69-17.72L10.69-17.72Q10.41-17.02 10.13-16.31L10.13-16.31Q15.75-10.27 12.52-5.48L12.52-5.48Q10.69-3.66 7.73-3.38L7.73-3.38Q7.59-5.48 6.33-6.89L6.33-6.89Q8.86-6.47 9.98-7.45L9.98-7.45Q12.38-10.27 7.17-16.03L7.17-16.03 10.55-24.33 6.05-24.33 6.05-5.06Q6.05-0.14 6.05 0.7L6.05 0.7Q6.19 2.39 6.33 2.95L6.33 2.95 2.81 2.95Q3.09 1.97 3.09-5.06L3.09-5.06 3.09-20.11Q3.09-24.19 2.81-27.14ZM28.27-19.55L28.27-19.55Q31.92-19.13 32.2-18.7L32.2-18.7Q32.2-18.56 31.92-18.42L31.92-18.42Q30.66-17.16 29.53-13.36L29.53-13.36Q28.41-13.78 26.3-13.78L26.3-13.78Q27.84-16.88 28.27-19.55ZM15.05-18.84L18.14-19.41Q18.42-18.84 18.98-16.73L18.98-16.73Q19.55-14.91 19.69-14.34L19.69-14.34 16.59-13.78Q16.31-16.73 15.05-18.84L15.05-18.84ZM70.17-27.28L70.17-27.28 70.17-24.05Q69.05-24.33 64.97-24.33L64.97-24.33 58.92-24.33 58.92-18.84 62.86-18.84Q66.38-18.84 67.36-19.13L67.36-19.13Q67.36-19.13 67.36-18.84L67.36-18.84Q67.08-17.16 67.08-15.05L67.08-15.05 67.08-1.97Q67.08-0.7 67.36 2.67L67.36 2.67 63.98 2.67Q63.98 3.09 64.13 1.27L64.13 1.27Q64.13 0.42 64.13-0.28L64.13-0.28 44.16-0.28Q44.16 1.27 44.3 2.67L44.3 2.67 41.2 2.67Q41.34 1.83 41.34-1.55L41.34-1.55 41.34-15.33Q41.34-17.02 41.2-18.7L41.2-18.7Q41.2-18.98 41.2-19.13L41.2-19.13Q42.75-18.84 44.86-18.84L44.86-18.84 49.22-18.84 49.22-24.33 43.45-24.33Q39.8-24.33 38.25-24.05L38.25-24.05 38.25-27.28Q40.36-26.86 43.31-26.86L43.31-26.86 64.83-26.86Q68.34-26.86 70.17-27.28ZM56.11-18.84L56.11-24.33 52.03-24.33 52.03-18.84 56.11-18.84ZM64.27-2.81L64.27-16.31 58.92-16.31 58.92-10.69Q58.78-8.58 63.28-10.41L63.28-10.41Q63.14-9.7 63.14-8.72L63.14-8.72Q63.14-7.73 63.14-7.03L63.14-7.03Q54.98-5.63 56.11-9.98L56.11-9.98 56.11-16.31 51.89-16.31Q51.61-9.7 47.11-5.63L47.11-5.63Q45.84-6.89 44.44-7.73L44.44-7.73Q49.36-10.13 49.22-16.31L49.22-16.31 44.16-16.31 44.16-2.81 64.27-2.81ZM78.89-23.77L78.89-27Q78.89-27.14 79.17-27L79.17-27Q80.86-26.72 84.09-26.72L84.09-26.72 95.91-26.72Q99.14-26.72 100.83-27L100.83-27Q101.11-27.14 101.11-27L101.11-27 101.11-23.77Q101.11-23.63 100.69-23.77L100.69-23.77Q99-24.05 95.91-24.05L95.91-24.05 84.09-24.05Q81-24.05 79.31-23.77L79.31-23.77Q78.89-23.63 78.89-23.77L78.89-23.77ZM74.39-14.34L74.39-17.58Q75.23-17.3 79.45-17.3L79.45-17.3 99.98-17.3Q104.34-17.3 105.33-17.58L105.33-17.58 105.33-14.34Q104.48-14.63 100.13-14.63L100.13-14.63 79.59-14.63Q75.23-14.63 74.39-14.34L74.39-14.34ZM91.83-12.66L91.83-12.66Q91.83-12.52 91.55-12.23L91.55-12.23Q90.42-11.53 89.16-10.27L89.16-10.27Q88.73-9.84 87.47-8.3L87.47-8.3Q82.97-2.81 81.56-1.97L81.56-1.97Q87.47-2.11 94.64-2.25L94.64-2.25Q97.45-2.39 98.02-2.39L98.02-2.39Q96.05-5.34 93.23-8.3L93.23-8.3 96.19-9.98Q99.14-5.91 104.34 0.42L104.34 0.42 101.11 2.39Q100.69 1.69 99.98 0.7L99.98 0.7Q99.56 0 99.42-0.14L99.42-0.14Q98.02-0.14 95.06 0L95.06 0Q82.13 0.14 78.05 1.27L78.05 1.27 76.78-2.11Q82.27-3.38 87.47-14.2L87.47-14.2Q91.69-12.94 91.83-12.66ZM124.17-28.97L124.17-28.97Q128.25-28.69 128.25-28.41L128.25-28.41Q128.25-28.27 128.11-27.84L128.11-27.84Q127.69-27 127.69-26.3L127.69-26.3Q127.55-24.19 127.55-21.8L127.55-21.8 132.19-21.8Q136.41-21.8 139.64-22.08L139.64-22.08Q139.36-18.84 139.22-15.61L139.22-15.61 139.22-11.81Q139.36-7.31 139.64-5.91L139.64-5.91 135.84-5.91Q135.98-7.17 135.98-8.16L135.98-8.16 127.55-8.16 127.55-1.69Q127.69 1.97 127.83 3.66L127.83 3.66 124.31 3.66Q124.45 2.39 124.45-1.69L124.45-1.69 124.45-8.16 115.88-8.16Q115.88-7.17 116.02-5.63L116.02-5.63 112.36-5.63Q112.64-7.31 112.78-11.81L112.78-11.81 112.78-15.61Q112.64-19.97 112.36-22.08L112.36-22.08Q115.17-21.94 119.39-21.8L119.39-21.8 124.45-21.8Q124.45-27.28 124.17-28.97ZM127.55-19.27L127.55-10.83 135.98-10.83 135.98-19.27 127.55-19.27ZM124.45-10.83L124.45-19.27 115.88-19.27 115.88-10.83 124.45-10.83ZM160.45-29.39L160.45-29.39Q164.25-28.69 163.97-28.13L163.97-28.13Q163.97-27.98 163.69-27.7L163.69-27.7Q162.7-26.72 161.72-25.17L161.72-25.17 171.28-25.17Q171.98-25.17 174.38-25.31L174.38-25.31Q176.63-25.31 177.33-25.31L177.33-25.31 177.33-22.64Q175.78-22.78 171.28-22.78L171.28-22.78 160.31-22.78Q160.03-22.36 159.47-21.8L159.47-21.8Q159.19-21.38 158.48-20.25L158.48-20.25Q160.45-19.97 162.84-19.97L162.84-19.97 168.19-19.97Q172.27-20.11 174.52-20.25L174.52-20.25Q174.52-19.83 174.38-18L174.38-18Q174.23-16.17 174.09-15.61L174.09-15.61 173.95-12.09Q176.2-12.09 178.17-12.23L178.17-12.23 178.17-9.7Q177.05-9.84 173.95-9.84L173.95-9.84 173.67-3.66Q174.8-3.66 176.91-3.8L176.91-3.8 176.91-1.41Q176.34-1.41 174.94-1.55L174.94-1.55Q173.95-1.55 173.67-1.55L173.67-1.55Q173.67 1.83 172.55 2.53L172.55 2.53Q170.44 3.52 167.34 3.8L167.34 3.8Q167.34 1.97 165.94 0.42L165.94 0.42Q171.14 1.41 171-1.55L171-1.55 163.83-1.55Q158.77-1.41 156.52-1.27L156.52-1.27Q157.22-5.48 157.78-9.84L157.78-9.84Q154.41-9.84 154.41-9.7L154.41-9.7 154.41-12.23Q154.41-12.23 158.06-12.09L158.06-12.09Q158.63-18.14 158.34-19.97L158.34-19.97Q156.66-17.72 155.81-16.73L155.81-16.73Q154.83-17.72 153-18.14L153-18.14Q157.78-22.92 160.45-29.39ZM147.52-25.88L149.77-28.13Q152.16-27 155.39-24.05L155.39-24.05 153.14-21.52Q150.89-24.05 147.52-25.88L147.52-25.88ZM145.27-17.3L147.09-19.83Q150.19-18.56 153.7-16.17L153.7-16.17 151.73-13.22Q149.63-15.19 145.27-17.3L145.27-17.3ZM171.42-17.58L160.88-17.58 160.59-12.09 171.28-12.09 171.42-17.58ZM163.83-16.31L166.08-17.16Q167.34-15.33 167.91-13.36L167.91-13.36 165.38-12.52Q164.95-14.34 163.83-16.31L163.83-16.31ZM150.47-11.81L150.47-11.81 153.28-10.13Q152.16-5.06 149.77 2.95L149.77 2.95 146.39 0.56Q148.78-4.08 150.47-11.81ZM160.45-9.98L159.75-3.66 171.14-3.66 171.28-9.98 160.45-9.98ZM163.13-8.44L165.52-9.14Q165.66-8.86 165.94-8.3L165.94-8.3Q167.34-6.05 167.63-5.2L167.63-5.2 164.81-4.08Q164.39-6.33 163.13-8.44L163.13-8.44Z" transform="translate(-2.809999942779541, 29.389999389648438)"></path></g> <!----> <!----> <!----> <!----> <!----> <!----> <!----></g></g> <g data-gra="path-slogan" fill-rule="" class="tp-slogan iconsvg-slogansvg" fill="#333" transform="translate(5,39.189998626708984)"><rect x="0" height="1" y="3.9750003814697266" width="8.449172973632812"></rect> <rect height="1" y="3.9750003814697266" width="8.449172973632812" x="156.91082763671875"></rect> <g transform="translate(11.449172973632812,0)"><g transform="scale(1)"><path d="M7.17-6.09L7.17-6.09L6.09-6.09Q6-7.73 3.94-7.83L3.94-7.83Q2.02-7.78 2.02-6.33L2.02-6.33Q2.02-5.39 3.05-5.25L3.05-5.25L5.48-4.69Q7.41-4.22 7.41-2.34L7.41-2.34Q7.36 0.05 4.03 0.14L4.03 0.14Q2.20 0.14 1.45-0.61L1.45-0.61Q0.52-1.31 0.56-2.77L0.56-2.77L1.69-2.77Q1.73-0.80 4.03-0.75L4.03-0.75Q6.28-0.80 6.33-2.20L6.33-2.20Q6.52-3.38 4.45-3.75L4.45-3.75L2.67-4.13Q0.84-4.64 0.84-6.19L0.84-6.19Q0.98-8.72 3.84-8.81L3.84-8.81Q7.08-8.81 7.17-6.09ZM10.03-5.06L14.53-5.06L14.53-8.58L15.70-8.58L15.70 0L14.53 0L14.53-3.98L10.03-3.98L10.03 0L8.86 0L8.86-8.58L10.03-8.58L10.03-5.06ZM23.16 0L22.31-2.48L18.84-2.48L17.95 0L16.78 0L20.02-8.58L21.33-8.58L24.42 0L23.16 0ZM20.58-7.31L19.22-3.52L21.89-3.52L20.63-7.31L20.58-7.31ZM31.13 0L30.28-2.48L26.81-2.48L25.92 0L24.75 0L27.98-8.58L29.30-8.58L32.39 0L31.13 0ZM28.55-7.31L27.19-3.52L29.86-3.52L28.59-7.31L28.55-7.31ZM34.83-8.58L39.14-1.64L39.14-8.58L40.27-8.58L40.27 0L38.95 0L34.59-6.94L34.55-6.94L34.55 0L33.42 0L33.42-8.58L34.83-8.58ZM48.80-8.58L45.89-4.41L48.94 0L47.48 0L45.14-3.52L42.80 0L41.39 0L44.48-4.41L41.58-8.58L43.03-8.58L45.19-5.30L47.39-8.58L48.80-8.58ZM50.20-8.58L51.38-8.58L51.38 0L50.20 0L50.20-8.58ZM63.61-8.58L60.38-3.47L60.38 0L59.20 0L59.20-3.47L55.97-8.58L57.33-8.58L59.77-4.45L62.25-8.58L63.61-8.58ZM70.31-3.19L70.31-8.58L71.48-8.58L71.48-3.05Q71.34 0.05 67.97 0.14L67.97 0.14Q64.83 0.05 64.69-2.86L64.69-2.86L64.69-8.58L65.86-8.58L65.86-3.19Q65.91-0.84 68.02-0.80L68.02-0.80Q70.31-0.84 70.31-3.19L70.31-3.19ZM74.67-8.58L78.98-1.64L78.98-8.58L80.11-8.58L80.11 0L78.80 0L74.44-6.94L74.39-6.94L74.39 0L73.27 0L73.27-8.58L74.67-8.58ZM82.73-1.03L88.03-1.03L88.03 0L81.28 0L81.28-0.94L86.53-7.59L81.66-7.59L81.66-8.58L88.03-8.58L88.03-7.59L82.73-1.03ZM90.33-5.06L94.83-5.06L94.83-8.58L96-8.58L96 0L94.83 0L94.83-3.98L90.33-3.98L90.33 0L89.16 0L89.16-8.58L90.33-8.58L90.33-5.06ZM104.58-4.27L104.58-4.27Q104.39-7.64 101.58-7.83L101.58-7.83Q98.72-7.69 98.58-4.27L98.58-4.27Q98.72-0.94 101.58-0.80L101.58-0.80Q104.39-0.98 104.58-4.27ZM105.75-4.27L105.75-4.27Q105.47 0 101.58 0.14L101.58 0.14Q97.64 0 97.36-4.27L97.36-4.27Q97.59-8.72 101.58-8.81L101.58-8.81Q105.47-8.67 105.75-4.27ZM108.52-8.58L112.83-1.64L112.83-8.58L113.95-8.58L113.95 0L112.64 0L108.28-6.94L108.23-6.94L108.23 0L107.11 0L107.11-8.58L108.52-8.58ZM122.16-3.61L119.53-3.61L119.53-4.59L123.28-4.59L123.28 0L122.53 0L122.25-1.08Q121.27 0.09 119.44 0.14L119.44 0.14Q117.70 0.14 116.77-0.75L116.77-0.75Q115.36-2.06 115.41-4.36L115.41-4.36Q115.73-8.63 119.48-8.81L119.48-8.81Q122.67-8.63 123.14-6L123.14-6L122.02-6Q121.55-7.78 119.44-7.83L119.44-7.83Q116.77-7.64 116.63-4.31L116.63-4.31Q116.63-0.75 119.48-0.75L119.48-0.75Q120.52-0.75 121.27-1.31L121.27-1.31Q122.20-2.06 122.16-3.61L122.16-3.61ZM126.23-5.06L130.73-5.06L130.73-8.58L131.91-8.58L131.91 0L130.73 0L130.73-3.98L126.23-3.98L126.23 0L125.06 0L125.06-8.58L126.23-8.58L126.23-5.06ZM139.36 0L138.52-2.48L135.05-2.48L134.16 0L132.98 0L136.22-8.58L137.53-8.58L140.63 0L139.36 0ZM136.78-7.31L135.42-3.52L138.09-3.52L136.83-7.31L136.78-7.31ZM141.84-8.58L143.02-8.58L143.02 0L141.84 0L141.84-8.58Z" transform="translate(-0.5602678571428572, 8.8125)"></path></g></g></g></g></g><defs v-gra="od"></defs></svg>